<svg height="480pt" viewBox="0 -16 480 480" width="480pt" xmlns="http://www.w3.org/2000/svg"><path d="m224 128s88-40 152-8c0 0 56 24-64 40zm0 0" fill="#cdeef6"/><path d="m208 112c-160-32-152 88-152 88v16h-32c-8.835938 0-16 7.164062-16 16s7.164062 16 16 16h200c96 0 192 112 192 112 0-72-40.304688-214.464844-208-248zm0 0" fill="#50b3c9"/><path d="m416 360h8c26.507812 0 48 21.492188 48 48v32h-8c-26.507812 0-48-21.492188-48-48zm0 0" fill="#50b3c9"/><path d="m368 440h-8v-32c0-26.507812 21.492188-48 48-48h8v32c0 26.507812-21.492188 48-48 48zm0 0" fill="#50b3c9"/><path d="m168 232s16 72 80 80 0-32 0-80zm0 0" fill="#cdeef6"/><path d="m120 248s-16 40 16 56 16-40 32-56zm0 0" fill="#cdeef6"/><path d="m144 128h16v16h-16zm0 0" fill="#cdeef6"/><path d="m120 192c0 8.835938-7.164062 16-16 16s-16-7.164062-16-16 7.164062-16 16-16 16 7.164062 16 16zm0 0" fill="#394d5c"/><g fill="#cdeef6"><path d="m320 208h16v16h-16zm0 0"/><path d="m280 192h16v16h-16zm0 0"/><path d="m48 88c0 8.835938-7.164062 16-16 16s-16-7.164062-16-16 7.164062-16 16-16 16 7.164062 16 16zm0 0"/><path d="m456 208c0 8.835938-7.164062 16-16 16s-16-7.164062-16-16 7.164062-16 16-16 16 7.164062 16 16zm0 0"/><path d="m120 32c0 13.253906-10.746094 24-24 24s-24-10.746094-24-24 10.746094-24 24-24 24 10.746094 24 24zm0 0"/></g><path d="m424 352h-.207031c-2.527344-71.820312-34.101563-139.535156-87.488281-187.640625 50.597656-8.953125 59.359374-19.710937 60.625-29.246094 1.773437-13.371093-14.496094-21.066406-17.355469-22.273437-47.085938-23.535156-105.175781-10.6875-137.140625-.238282-10.792969-3.375-21.753906-6.191406-32.832032-8.441406-58.273437-11.65625-102.058593-5.070312-130.136718 19.558594-20.960938 19.726562-32.421875 47.515625-31.464844 76.28125v8h-24c-13.253906 0-24 10.746094-24 24s10.746094 24 24 24h85.351562c-3.589843 17.695312-1.65625 42.792969 23.074219 55.199219 4.125 2.242187 8.714844 3.5 13.40625 3.671875 2.875.035156 5.710938-.667969 8.238281-2.039063 10.035157-5.488281 11.457032-18.960937 12.976563-33.214843.488281-6.382813 1.507813-12.710938 3.050781-18.921876 11.375 23.273438 34.214844 53.945313 76.910156 59.28125 4.859376.667969 9.753907 1.035157 14.65625 1.101563 7.679688 1.054687 15.375-1.808594 20.496094-7.628906 5.902344-8.9375-.398437-19.777344-8.390625-33.503907-3.128906-5.378906-6.539062-11.289062-9.546875-17.519531 58.175782 17.574219 111.5625 67.175781 134.226563 90.453125-26.8125 4.660156-46.402344 27.90625-46.449219 55.121094v32c0 4.417969 3.582031 8 8 8h8c19.6875-.03125 37.910156-10.398438 48-27.304688 10.089844 16.90625 28.3125 27.273438 48 27.304688h8c4.417969 0 8-3.582031 8-8v-32c-.035156-30.914062-25.085938-55.964844-56-56zm-51.199219-224.65625c3.042969 1.347656 5.84375 3.1875 8.289063 5.449219-.167969.390625-4.90625 9.734375-61.851563 18.109375-15.902343-11.589844-33.097656-21.300782-51.238281-28.933594 30.144531-7.296875 71-11.519531 104.800781 5.375zm-221.664062 150.542969c-.722657 6.777343-2.066407 19.402343-4.746094 20.867187-.351563.230469-2.398437.292969-6.816406-1.914062-19.300781-9.648438-16.316407-31.03125-13.734375-40.800782h28.9375c-1.867188 7.160157-3.085938 14.472657-3.640625 21.847657zm97.855469 26.175781c-44.609376-5.597656-63.671876-45.253906-70.273438-64.0625h61.785156c3.214844 17.121094 9.824219 33.425781 19.441406 47.953125 3.339844 5.195313 6.144532 10.71875 8.375 16.480469-6.414062.996094-12.957031.871094-19.328124-.371094zm8.527343-59.933594c-.96875-3.972656-1.480469-8.042968-1.519531-12.128906 0-4.417969-3.582031-8-8-8h-80c-2.425781 0-4.722656 1.101562-6.238281 2.996094-1.519531 1.890625-2.097657 4.371094-1.570313 6.738281.113282.488281.679688 2.851563 1.730469 6.265625h-137.921875c-4.417969 0-8-3.582031-8-8s3.582031-8 8-8h32c4.417969 0 8-3.582031 8-8v-16.527344c0-.394531-2.257812-38.953125 26-63.730468 24.152344-21.167969 63.320312-26.519532 116.414062-15.902344 11.382813 2.285156 22.628907 5.199218 33.691407 8.726562 26.042969 8.265625 50.53125 20.808594 72.453125 37.113282 62 46.441406 88.800781 117.761718 94.328125 172.800781-26.703125-27.046875-85.144531-79.457031-149.367188-94.351563zm110.480469 187.871094v-24c.027344-22.082031 17.917969-39.972656 40-40v24c-.027344 22.082031-17.917969 39.972656-40 40zm96 0c-22.082031-.027344-39.972656-17.917969-40-40v-24c22.082031.027344 39.972656 17.917969 40 40zm0 0"/><path d="m144 128h16v16h-16zm0 0"/><path d="m104 168c-13.253906 0-24 10.746094-24 24s10.746094 24 24 24 24-10.746094 24-24-10.746094-24-24-24zm0 32c-4.417969 0-8-3.582031-8-8s3.582031-8 8-8 8 3.582031 8 8-3.582031 8-8 8zm0 0"/><path d="m320 208h16v16h-16zm0 0"/><path d="m280 192h16v16h-16zm0 0"/><path d="m32 112c13.253906 0 24-10.746094 24-24s-10.746094-24-24-24-24 10.746094-24 24 10.746094 24 24 24zm0-32c4.417969 0 8 3.582031 8 8s-3.582031 8-8 8-8-3.582031-8-8 3.582031-8 8-8zm0 0"/><path d="m440 232c13.253906 0 24-10.746094 24-24s-10.746094-24-24-24-24 10.746094-24 24 10.746094 24 24 24zm0-32c4.417969 0 8 3.582031 8 8s-3.582031 8-8 8-8-3.582031-8-8 3.582031-8 8-8zm0 0"/><path d="m96 64c17.671875 0 32-14.328125 32-32s-14.328125-32-32-32-32 14.328125-32 32 14.328125 32 32 32zm0-48c8.835938 0 16 7.164062 16 16s-7.164062 16-16 16-16-7.164062-16-16 7.164062-16 16-16zm0 0"/></svg>