<svg height="512pt" viewBox="0 0 512 512" width="512pt" xmlns="http://www.w3.org/2000/svg"><path d="m160 32h320v16h-320zm0 0"/><path d="m32 32h16v16h-16zm0 0"/><path d="m64 32h16v16h-16zm0 0"/><path d="m96 32h16v16h-16zm0 0"/><path d="m48 128h240v16h-240zm0 0"/><path d="m48 176h240v16h-240zm0 0"/><path d="m48 224h144v16h-144zm0 0"/><path d="m48 272h240v16h-240zm0 0"/><path d="m48 320h240v16h-240zm0 0"/><path d="m48 368h144v16h-144zm0 0"/><path d="m352 380h16v28h-16zm0 0"/><path d="m352 432h16v48h-16zm0 0"/><path d="m0 0v503.199219l31.28125-21.503907 23.269531 16 23.28125-16 23.273438 16 23.269531-16 23.28125 16 23.265625-16 23.269531 16 23.273438-16 23.261718 16 15.273438-10.496093v24.800781h208v-26.351562l9-4.648438 39 20.136719v-501.136719zm448 496h-176v-56h176zm-96-299.054688v22.109376l-32-16v-22.109376zm-30.839844-33.3125c3.03125-15.535156 13.519532-31.730468 44.71875-41.753906-9.648437 12.5625-13.878906 30.160156-13.878906 54.121094v3.054688zm30.839844 73.3125v22.109376l-32-16v-22.109376zm0 40v22.109376l-32-16v-22.109376zm40 75.054688v16h-64v-16zm4.6875 32 40 40h-153.375l40-40zm99.3125 90.863281-23-11.863281-9 4.640625v-38.953125l-56-56v-36.6875h-40v-19.054688l48-24v-124.945312c0-51.199219 20.121094-55.585938 29.601562-55.953125.796876 0 1.542969-.046875 2.398438-.046875v-16c-96.894531 0-144 26.167969-144 80v116.945312l48 24v19.054688h-40v36.6875l-56 56v39.105469l-15.273438 10.503906-23.261718-16-23.273438 16-23.269531-16-23.265625 16-23.28125-16-23.269531 16-23.273438-16-23.28125 16-23.269531-16-15.28125 10.503906v-392.800781h480zm-96-293.917969v22.109376l-32 16v-22.109376zm-32-1.890624v-3.054688c0-34.9375 7.328125-54.542969 44-61.273438-8.335938 14.6875-12.457031 31.386719-11.902344 48.265626zm32 41.890624v22.109376l-32 16v-22.109376zm0 40v22.109376l-32 16v-22.109376zm96-196.945312h-480v-48h480zm0 0"/></svg>